<?xml version="1.0" encoding="UTF-8" standalone="no"?>
<svg
   xmlns:dc="http://purl.org/dc/elements/1.1/"
   xmlns:cc="http://creativecommons.org/ns#"
   xmlns:rdf="http://www.w3.org/1999/02/22-rdf-syntax-ns#"
   xmlns:svg="http://www.w3.org/2000/svg"
   xmlns="http://www.w3.org/2000/svg"
   xmlns:sodipodi="http://sodipodi.sourceforge.net/DTD/sodipodi-0.dtd"
   xmlns:inkscape="http://www.inkscape.org/namespaces/inkscape"
   width="1000pt"
   height="1000pt"
   viewBox="0 0 1000 1000"
   version="1.1"
   id="svg2"
   inkscape:version="0.48.4 r9939"
   sodipodi:docname="logo_dexstudio.svg"
   inkscape:export-filename="C:\Users\tom\Desktop\logo_dexstudio.png"
   inkscape:export-xdpi="14.4"
   inkscape:export-ydpi="14.4">
  <metadata
     id="metadata40">
    <rdf:RDF>
      <cc:Work
         rdf:about="">
        <dc:format>image/svg+xml</dc:format>
        <dc:type
           rdf:resource="http://purl.org/dc/dcmitype/StillImage" />
        <dc:title></dc:title>
      </cc:Work>
    </rdf:RDF>
  </metadata>
  <defs
     id="defs38">
    <clipPath
       clipPathUnits="userSpaceOnUse"
       id="clipPath3031">
      <path
         inkscape:connector-curvature="0"
         d="m 0,595.28 841.89,0 L 841.89,0 0,0 0,595.28 z"
         id="path3033" />
    </clipPath>
  </defs>
  <sodipodi:namedview
     pagecolor="#ffffff"
     bordercolor="#666666"
     borderopacity="1"
     objecttolerance="10"
     gridtolerance="10"
     guidetolerance="10"
     inkscape:pageopacity="0"
     inkscape:pageshadow="2"
     inkscape:window-width="1176"
     inkscape:window-height="939"
     id="namedview36"
     showgrid="false"
     inkscape:zoom="0.3776"
     inkscape:cx="991.73778"
     inkscape:cy="366.08451"
     inkscape:window-x="505"
     inkscape:window-y="20"
     inkscape:window-maximized="0"
     inkscape:current-layer="svg2" />
  <path
     style="fill:#a4c439;fill-opacity:1"
     d="M 0 0 L 0 1250 L 1250 1250 L 1250 0 L 0 0 z M 95.21875 32.28125 C 98.479687 32.275 101.74375 32.38125 105 32.34375 C 455.8375 32.35625 806.68125 32.31875 1157.5312 32.34375 C 1175.0813 33.23125 1192.325 41.66875 1203.0625 55.71875 C 1211.3 65.63125 1215.5938 78.45625 1216.4062 91.21875 C 1216.4437 443.73125 1216.3625 796.2375 1216.4375 1148.75 C 1217.2125 1163.2375 1213.8438 1178.325 1205.2188 1190.1875 C 1194.3188 1206.1125 1175.5063 1215.95 1156.2812 1216.4375 C 801.25625 1216.3625 446.24375 1216.4437 91.21875 1216.4062 C 73.35625 1215.5187 55.86875 1206.75 45.15625 1192.3125 C 37.24375 1182.525 33.14375 1169.9938 32.34375 1157.5312 C 32.31875 806.68125 32.35625 455.8375 32.34375 105 C 32.26875 95.725 31.78125 86.25 34.71875 77.3125 C 40.68125 54.0625 61.75625 36 85.46875 32.875 C 88.69375 32.3875 91.957813 32.2875 95.21875 32.28125 z "
     id="path4"
     transform="scale(0.8,0.8)" />
  <g
     id="g3161">
    <path
       id="path8"
       d=" M 75.16 74.95 C 76.76 74.75 78.37 74.72 79.98 74.71 C 112.99 74.81 145.99 74.69 178.99 74.77 C 198.71 75.12 218.72 74.29 238.08 78.75 C 250.39 81.59 262.02 86.80 273.07 92.83 C 285.72 99.60 296.18 109.68 305.86 120.12 C 325.99 143.09 337.60 173.42 337.42 204.01 C 338.27 238.64 323.70 272.93 299.33 297.34 C 288.08 308.29 274.87 317.14 260.57 323.59 C 244.03 331.94 225.26 334.09 207.01 335.14 C 167.01 335.78 127.01 335.27 87.01 335.48 C 83.03 335.39 78.80 335.76 75.12 333.98 C 74.92 317.71 74.89 301.40 75.14 285.14 C 117.42 284.79 159.72 285.16 202.01 284.95 C 211.96 284.87 222.12 283.96 231.48 280.37 C 246.12 274.89 260.25 266.36 269.31 253.31 C 279.62 238.35 286.66 220.36 285.66 201.96 C 284.15 180.90 274.90 160.06 259.07 145.89 C 251.96 140.07 244.40 134.56 235.73 131.31 C 223.43 126.56 210.11 125.08 197.00 125.11 C 160.33 125.12 123.67 125.10 87.00 125.12 C 83.05 125.09 79.09 125.32 75.16 124.92 C 74.89 108.28 74.89 91.59 75.16 74.95 Z"
       fill="#030303" />
    <path
       id="path10"
       d=" M 464.77 78.75 C 474.97 76.13 485.51 75.49 495.98 74.93 C 526.32 74.55 556.66 74.83 587.00 74.74 C 600.30 74.91 613.62 74.43 626.90 74.95 C 627.26 91.58 627.26 108.27 626.90 124.90 C 612.95 125.42 598.96 124.95 585.00 125.11 C 558.33 125.11 531.67 125.11 505.00 125.11 C 490.65 125.21 475.89 126.72 462.76 132.88 C 453.06 137.94 443.51 143.92 436.67 152.64 C 429.53 161.41 424.35 171.63 420.44 182.20 C 415.23 199.10 416.00 217.81 422.82 234.15 C 426.63 243.37 432.03 251.92 438.51 259.49 C 449.01 270.55 462.50 278.98 477.46 282.42 C 491.37 285.85 505.80 284.83 520.00 285.00 C 555.64 285.11 591.29 284.79 626.92 285.16 C 627.26 301.82 627.22 318.54 626.94 335.21 C 611.98 335.80 596.97 335.27 581.99 335.45 C 558.00 335.38 534.01 335.59 510.02 335.34 C 490.83 335.38 471.29 334.24 452.94 328.17 C 436.23 321.87 420.38 312.89 407.11 300.85 C 384.80 280.40 369.84 251.89 366.20 221.79 C 365.30 212.90 364.40 203.94 365.58 195.02 C 367.21 166.43 379.57 138.90 398.91 117.92 C 405.37 110.31 413.00 103.76 421.38 98.35 C 434.65 89.58 449.03 81.88 464.77 78.75 Z"
       fill="#030303" />
    <path
       id="path12"
       d=" M 655.79 75.02 C 673.20 74.68 690.62 75.04 708.03 74.84 C 710.52 75.02 713.70 74.26 715.36 76.69 C 737.38 102.99 759.32 129.36 781.29 155.70 C 784.08 158.98 786.62 162.52 789.79 165.45 C 797.12 157.54 803.70 148.94 810.74 140.76 C 828.30 119.64 845.96 98.61 863.49 77.46 C 864.76 75.70 866.69 74.61 868.92 74.88 C 887.34 74.97 905.76 74.72 924.18 75.02 C 920.73 80.20 916.56 84.85 912.76 89.76 C 886.09 123.43 859.45 157.12 832.77 190.78 C 829.16 195.59 824.94 199.98 821.79 205.13 C 823.58 208.54 826.30 211.33 828.63 214.37 C 855.81 248.85 883.02 283.31 910.21 317.79 C 914.64 323.61 919.61 329.06 923.51 335.27 C 906.34 335.72 889.16 335.26 871.98 335.50 C 869.11 335.40 865.53 336.09 863.74 333.23 C 841.53 306.46 819.18 279.81 796.94 253.07 C 794.63 250.34 792.53 247.41 789.93 244.94 C 787.01 247.38 784.80 250.51 782.36 253.39 C 760.26 279.97 738.06 306.46 715.97 333.04 C 714.89 334.21 713.70 335.68 711.91 335.44 C 693.07 335.56 674.22 335.30 655.38 335.57 C 687.39 294.85 719.50 254.20 751.60 213.56 C 753.72 210.80 756.19 208.26 757.83 205.16 C 751.41 196.04 744.05 187.59 737.29 178.70 C 712.43 147.22 687.59 115.73 662.75 84.23 C 660.37 81.20 657.83 78.29 655.79 75.02 Z"
       fill="#030303" />
    <path
       id="path14"
       d=" M 491.08 180.16 C 505.71 179.77 520.36 180.12 535.00 180.00 C 565.64 180.11 596.29 179.78 626.92 180.16 C 627.41 189.76 626.96 199.39 627.11 209.00 C 626.96 215.97 627.43 222.95 626.90 229.90 C 612.28 230.42 597.63 229.95 583.00 230.11 C 553.66 230.12 524.32 230.08 494.98 230.14 C 493.68 230.12 492.38 230.04 491.10 229.90 C 490.73 213.34 490.77 196.72 491.08 180.16 Z"
       fill="#030303" />
  </g>
  <g
     id="g3152"
     transform="matrix(1.4333711,0,0,1.4333711,-216.35879,-154.33692)">
    <path
       id="path16"
       d="m 282.98,379.09 c 2.44,-10.05 12.94,-16.6 22.98,-16.21 16.74,0.14 33.5,-0.24 50.24,0.18 0.47,4.94 0.47,9.94 0,14.88 -17.07,0.48 -34.17,-0.06 -51.25,0.22 -3.79,-0.25 -7.12,3.02 -6.98,6.81 -0.33,3.46 2.64,6.69 6.1,6.71 10.32,0.32 20.66,-0.23 30.98,0.21 7.4,0.23 14.62,4.1 18.76,10.26 3.41,5.14 4.32,11.67 3.26,17.68 -1.32,6.35 -5.73,11.83 -11.31,15.03 -5.39,2.99 -11.74,3.26 -17.76,3.16 -15.28,-0.15 -30.58,0.2 -45.85,-0.16 -0.31,-4.96 -0.31,-9.95 0.02,-14.91 17.27,-0.56 34.58,0.03 51.86,-0.25 4.26,0.23 7.96,-3.49 7.9,-7.71 0.4,-4.34 -3.69,-8.14 -7.93,-7.95 -9.98,-0.19 -19.97,0.1 -29.96,-0.08 -7.4,-0.18 -14.6,-4.17 -18.61,-10.4 -3.34,-5.13 -3.41,-11.63 -2.45,-17.47 z"
       inkscape:connector-curvature="0"
       style="fill:#030303" />
    <path
       id="path18"
       d="m 366.17,363.08 c 15.59,-0.47 31.22,-0.05 46.83,-0.19 9.39,0.14 18.81,-0.28 28.2,0.17 0.47,4.65 0.46,9.36 0,14.01 -9.91,0.62 -19.87,-0.23 -29.79,0.34 -0.54,20.13 0.26,40.3 -0.36,60.42 -4.74,0.34 -9.52,0.32 -14.26,0.03 -0.67,-20.12 0.1,-40.29 -0.34,-60.41 -10.08,-0.68 -20.21,0.3 -30.28,-0.4 -0.34,-4.65 -0.35,-9.33 0,-13.97 z"
       inkscape:connector-curvature="0"
       style="fill:#030303" />
    <path
       id="path20"
       d="m 450.16,363.09 c 4.89,-0.4 9.84,-0.41 14.74,0.02 0.65,13.25 -0.19,26.56 0.36,39.82 0.77,11.8 12.02,21.26 23.67,20.81 8.42,-0.67 16.6,-5.96 19.84,-13.9 3.05,-7.22 1.92,-15.22 2.12,-22.84 0.15,-7.96 -0.33,-15.95 0.21,-23.89 4.68,-0.44 9.42,-0.4 14.11,-0.03 0.6,11.28 0.05,22.61 0.25,33.91 0.19,7.25 -0.77,14.69 -4.34,21.11 -5.65,10.3 -16.23,17.88 -27.94,19.42 -16.96,2.84 -34.92,-7.96 -40.62,-24.14 -3.28,-9.43 -2.46,-19.57 -2.56,-29.38 0.12,-6.97 -0.25,-13.95 0.16,-20.91 z"
       inkscape:connector-curvature="0"
       style="fill:#030303" />
    <path
       id="path22"
       d="m 534.17,363.08 c 11.59,-0.48 23.22,-0.05 34.84,-0.19 8.32,-0.17 16.81,1.65 23.8,6.34 10.16,6.66 16.83,18.56 16.67,30.78 0.4,11.1 -4.83,22.08 -13.39,29.08 -7.95,6.99 -18.76,9.05 -29.05,8.92 -10.91,-0.23 -21.85,0.41 -32.73,-0.31 -0.58,-4.55 -0.47,-9.18 -0.14,-13.75 12.27,-0.59 24.58,0.07 36.86,-0.27 6.41,-0.21 12.91,-2.55 17.43,-7.19 4.2,-4.73 6.87,-11.07 6.4,-17.45 -0.6,-7.98 -5.36,-15.63 -12.59,-19.22 -6.87,-3.57 -14.83,-2.4 -22.27,-2.57 -8.61,-0.15 -17.24,0.33 -25.83,-0.2 -0.34,-4.65 -0.35,-9.33 0,-13.97 z"
       inkscape:connector-curvature="0"
       style="fill:#030303" />
    <path
       id="path24"
       d="m 618.16,363.09 c 4.87,-0.4 9.8,-0.4 14.68,-0.01 0.28,24.91 0.24,49.86 0.02,74.77 -4.9,0.3 -9.83,0.31 -14.72,0 -0.22,-24.91 -0.26,-49.86 0.02,-74.76 z"
       inkscape:connector-curvature="0"
       style="fill:#030303" />
    <path
       id="path26"
       d="m 672.37,363.47 c 16.09,-3.1 33.67,5.78 40.54,20.68 5.68,11.88 4.83,27 -3.09,37.69 -5.69,7.89 -14.29,13.71 -23.93,15.38 -15.37,3.36 -32.26,-4.56 -39.84,-18.26 -4.53,-8.04 -6.19,-17.81 -4.02,-26.82 3.11,-14.52 15.75,-26.27 30.34,-28.67 z"
       inkscape:connector-curvature="0"
       style="fill:#030303" />
    <path
       id="path28"
       d="m 674.39,377.58 c 13.52,-3.17 27.61,8.71 27.5,22.42 0.42,10.88 -7.83,21.11 -18.47,23.21 -9.22,2.23 -19.22,-2.62 -24.05,-10.59 -3.4,-5.08 -4.07,-11.54 -2.9,-17.43 1.87,-8.69 9.25,-15.81 17.92,-17.61 z"
       inkscape:connector-curvature="0"
       style="fill:#fdfcfc" />
  </g>
  <path
     style="fill:#a4c439;fill-opacity:1"
     d="M 899.8125 684.8125 C 895.51207 685.02047 891.3596 687.11312 889.15625 691 C 885.77475 698.30909 881.12304 704.88994 877.5 712.0625 C 873.65644 719.91766 868.7073 727.20683 864.96875 735.125 C 859.1929 747.01275 851.55354 757.86046 846.21875 769.96875 C 844.507 773.6758 841.93254 776.90873 839.96875 780.46875 C 835.74712 787.5783 832.54691 795.23573 828.03125 802.15625 C 824.91229 807.06048 822.89995 812.58527 819.8125 817.5 C 818.06924 817.82555 816.2425 817.67159 814.59375 817.0625 C 807.85176 814.41611 801.46226 810.89257 794.53125 808.71875 C 783.85118 805.52629 773.73436 800.63334 762.78125 798.3125 C 753.24584 795.16203 743.55896 792.42128 733.6875 790.5625 C 729.33986 789.12379 724.66987 789.1285 720.40625 787.40625 C 716.09011 785.684 711.2854 786.42848 706.90625 784.96875 C 703.51425 783.78209 699.87226 784.05403 696.34375 783.8125 C 693.47683 783.68648 690.95017 782.08452 688.09375 781.9375 C 682.86397 781.51744 677.43649 782.58802 672.40625 780.71875 C 664.55109 778.16688 656.20095 778.938 648.09375 778.875 C 630.94472 778.865 613.80529 778.896 596.65625 778.875 C 589.94576 778.79099 583.0417 778.58669 576.59375 780.75 C 570.2088 783.19686 563.1352 780.56466 556.71875 782.875 C 552.49713 784.43974 547.93064 783.52285 543.625 784.5625 C 538.08019 786.30576 532.10604 785.97065 526.71875 788.3125 C 513.89636 790.72785 501.05808 793.2561 488.71875 797.65625 C 480.42254 800.12411 471.92919 802.12875 463.9375 805.53125 C 456.18736 808.03061 448.58059 810.91 441.1875 814.3125 C 437.53296 815.6252 433.99085 817.83529 429.96875 817.59375 C 424.10889 805.41196 416.6949 794.05604 410.625 781.96875 C 407.45354 775.43679 403.2327 769.51173 400.21875 762.90625 C 395.32502 754.13745 390.10815 745.55234 385.75 736.5 C 383.83873 732.60393 381.58083 728.87354 379.3125 725.1875 C 374.39777 716.72325 370.44954 707.72271 365.09375 699.5 C 362.31084 695.27837 361.4132 689.4799 356.6875 686.8125 C 353.34801 684.23963 348.78158 684.78742 344.875 685.3125 C 341.504 686.86674 337.20775 689.31988 337.28125 693.5625 C 337.23925 697.23804 336.74185 701.07522 337.75 704.65625 C 340.32288 709.7075 343.84616 714.22874 346.125 719.4375 C 350.63016 729.30895 357.25635 738.05504 361.625 748 C 366.89677 758.37553 373.50254 768.01842 378.34375 778.625 C 380.57007 783.55023 384.2437 787.67826 386.3125 792.6875 C 391.15371 802.67447 397.19876 812.02429 402.25 821.90625 C 403.5837 824.76267 405.9093 827.48326 405.53125 830.84375 C 400.70054 833.56366 395.48569 835.5798 390.8125 838.59375 C 382.12773 844.3696 372.73525 848.98211 364.25 855.0625 C 355.98528 859.86171 348.73041 866.15445 340.84375 871.53125 C 334.44831 877.07606 327.01535 881.34507 321.25 887.625 C 311.00049 894.72404 302.85331 904.23249 293.9375 912.84375 C 287.03799 919.9533 279.68313 926.71658 273.78125 934.71875 C 267.50133 941.46075 262.41314 949.15197 256.40625 956.125 C 250.95595 964.34771 244.64194 972.02321 239.96875 980.75 C 228.55356 996.74385 220.48703 1014.7644 211.78125 1032.3125 C 208.32624 1040.5247 204.47785 1048.5867 202.0625 1057.1875 C 197.58884 1067.8256 194.52266 1078.9722 191.71875 1090.1562 C 189.08286 1097.6019 187.68744 1105.4059 186.40625 1113.1875 C 184.51596 1118.2702 185.61184 1123.918 183.375 1128.9062 C 181.01215 1134.8817 182.78551 1141.4611 180.96875 1147.5625 C 178.92095 1155.0081 179.93929 1162.7822 179.71875 1170.4062 C 179.87627 1175.8566 179.29513 1181.3625 180.15625 1186.7812 C 184.5249 1187.548 188.96435 1187.1137 193.375 1187.2188 C 431.41361 1187.1986 669.47189 1187.1875 907.5 1187.1875 C 961.34145 1187.093 1015.1691 1187.3881 1069 1187.0625 C 1070.7958 1184.3006 1070.1655 1180.8374 1070.3125 1177.75 C 1069.9449 1168.4981 1071.2827 1159.0312 1068.5312 1150.0312 C 1066.0425 1143.7094 1068.5189 1136.6866 1066.1875 1130.3438 C 1064.4233 1126.038 1065.5016 1121.2228 1064.0312 1116.8438 C 1062.8447 1113.1156 1063.01 1109.1134 1061.7812 1105.4062 C 1057.9798 1092.962 1056.2398 1079.8888 1051.0625 1067.875 C 1048.8887 1061.0805 1047.109 1054.1456 1043.9375 1047.7188 C 1032.4383 1017.6947 1016.4612 989.52513 998.0625 963.21875 C 994.05091 958.11499 990.78718 952.49568 986.1875 947.875 C 982.20741 941.8156 976.96366 936.76432 972.4375 931.125 C 966.60914 923.38536 959.37649 916.86929 952.75 909.84375 C 946.84814 904.24643 941.28017 898.24975 934.96875 893.125 C 928.64681 888.99789 923.92618 882.9081 917.59375 878.8125 C 914.27526 876.59668 911.7255 873.40231 908.3125 871.3125 C 888.11803 856.20078 866.70104 842.65799 844.40625 830.84375 C 844.15421 826.10755 847.8095 822.48161 849.46875 818.3125 C 854.20495 810.07927 858.80911 801.756 863.09375 793.28125 C 866.24421 787.05384 870.44481 781.41567 873.40625 775.09375 C 878.64652 764.09863 885.51998 753.97413 890.78125 743 C 898.34238 730.1356 904.89662 716.64514 912.53125 703.84375 C 912.68878 698.47746 914.50103 691.32052 909.21875 687.75 C 906.59533 685.63197 903.15728 684.65074 899.8125 684.8125 z M 383.25 872.90625 C 387.10547 872.9168 390.97813 873.60625 394.8125 874 C 417.325 879.3625 433.2875 904.03125 428 926.78125 C 426.1875 933.13125 424.90625 940.125 419.78125 944.8125 C 412.80625 953.3125 403.65 960.7625 392.5 962.4375 C 386.6375 962.65 380.78125 962.6125 374.90625 962.4375 C 356.88125 960.025 342.35625 944.55 339.09375 926.9375 C 336.40625 920.5125 337.4125 913.58125 339.5 907.15625 C 340.9125 896.50625 348.425 888.0375 356.4375 881.5 C 363 876.325 370.98125 873.05625 379.40625 873.15625 C 380.69063 872.975 381.96484 872.90273 383.25 872.90625 z M 865.21875 872.9375 C 865.90606 872.91338 866.59297 872.92539 867.28125 872.9375 C 871.41094 873.01016 875.5375 873.7 879.625 874.1875 C 892.7625 878.7625 903.875 889.0625 909.1875 901.9375 C 910.2625 905.95 911.00625 910.05 912.09375 914.0625 C 913.55625 919.4875 910.9875 924.6875 910 929.9375 C 907.575 940.8 900.09375 949.7625 891.40625 956.375 C 887.04375 959.05 882.15 960.775 877.25 962.1875 C 870.3125 962.8125 863.29375 962.65 856.34375 962.3125 C 848.21875 960.4 840.5625 956.2125 834.75 950.1875 C 831.0875 946.3125 827.09375 942.475 825.21875 937.375 C 821.98125 928.4375 818.7125 918.7625 821.5625 909.25 C 823.65 903.5625 825.0375 897.40625 828.9375 892.59375 C 836.325 881.13125 849.35625 873.20625 863.15625 873.09375 C 863.84375 873.02188 864.53144 872.96162 865.21875 872.9375 z "
     id="path30"
     transform="scale(0.8,0.8)" />
</svg>
